<svg width="56" height="54" viewBox="0 0 56 54" fill="none" xmlns="http://www.w3.org/2000/svg">
<g clip-path="url(#clip0_8_63)">
<path d="M55.0375 16.2C54.95 13.5 54.425 11.5594 53.8125 9.7875C53.2 8.01563 52.2375 6.58125 50.75 5.14687C49.2625 3.7125 47.775 2.86875 46.025 2.19375C44.275 1.51875 42.35 1.09688 39.375 1.0125C36.3125 0.84375 35.4375 0.84375 28 0.84375C20.5625 0.84375 19.775 0.84375 16.8 0.928125C13.825 1.0125 11.9875 1.51875 10.15 2.10938C8.3125 2.7 6.825 3.7125 5.3375 5.14687C3.85 6.58125 2.8875 8.01563 2.275 9.7875C1.575 11.475 1.1375 13.3313 1.05 16.2C0.9625 19.0688 0.875 19.8281 0.875 27C0.875 34.1719 0.875 34.9312 0.9625 37.8C1.05 40.6688 1.575 42.4406 2.1875 44.2125C2.8 45.9844 3.7625 47.4188 5.25 48.8531C6.7375 50.2875 8.3125 51.2156 10.0625 51.8063C11.8125 52.3969 13.7375 52.9031 16.7125 52.9875C19.6875 53.1562 20.475 53.1562 27.9125 53.1562C35.35 53.1562 36.1375 53.1562 39.1125 53.0719C42.0875 52.9875 43.925 52.4813 45.7625 51.8906C47.6 51.3 49.0875 50.3719 50.575 48.9375C52.0625 47.5031 53.025 45.9844 53.6375 44.2969C54.25 42.6094 54.775 40.7531 54.8625 37.8844C54.95 35.1844 54.95 34.3406 54.95 27.1688C54.95 19.9969 55.125 19.0688 55.0375 16.2ZM50.1375 37.5469C50.05 40.0781 49.525 41.4281 49.175 42.4406C48.65 43.6219 48.0375 44.55 47.075 45.3937C46.1125 46.3219 45.2375 46.8281 44.0125 47.4188C43.05 47.7563 41.65 48.2625 38.9375 48.3469C36.1375 48.3469 35.2625 48.3469 28.0875 48.3469C20.9125 48.3469 19.95 48.3469 17.15 48.2625C14.525 48.1781 13.125 47.6719 12.075 47.3344C10.85 46.8281 9.8875 46.2375 9.0125 45.3094C8.05 44.3813 7.525 43.5375 6.9125 42.3563C6.5625 41.4281 6.0375 40.0781 5.95 37.4625C5.95 34.8469 5.95 34.0031 5.95 27C5.95 19.9969 5.95 19.1531 6.0375 16.4531C6.125 13.9219 6.65 12.5719 7 11.5594C7.525 10.3781 8.1375 9.45 9.0125 8.60625C9.975 7.67812 10.85 7.17188 12.075 6.66563C13.0375 6.32812 14.4375 5.82188 17.15 5.7375C19.95 5.65313 20.825 5.65312 28.0875 5.65312C35.35 5.65312 36.225 5.65313 39.025 5.7375C41.65 5.82188 43.05 6.32812 44.1 6.66563C45.325 7.17188 46.2875 7.7625 47.1625 8.60625C48.125 9.53438 48.65 10.3781 49.2625 11.5594C49.6125 12.4875 50.1375 13.8375 50.225 16.4531C50.3125 19.1531 50.3125 19.9969 50.3125 27C50.3125 34.0031 50.225 34.8469 50.1375 37.5469Z" fill="#212332"/>
<path d="M28.0014 13.584C20.2139 13.584 14.0889 19.659 14.0889 26.9997C14.0889 34.509 20.3889 40.4153 28.0014 40.4153C35.6139 40.4153 42.0014 34.509 42.0014 26.9997C42.0014 19.4903 35.7889 13.584 28.0014 13.584ZM28.0014 35.7747C22.9264 35.7747 18.9014 31.809 18.9014 26.9997C18.9014 22.1903 23.0139 18.2247 28.0014 18.2247C33.0764 18.2247 37.1014 22.1059 37.1014 26.9997C37.1014 31.8934 33.0764 35.7747 28.0014 35.7747Z" fill="#212332"/>
<path d="M42.6125 16.1158C44.4006 16.1158 45.85 14.7181 45.85 12.9939C45.85 11.2697 44.4006 9.87207 42.6125 9.87207C40.8244 9.87207 39.375 11.2697 39.375 12.9939C39.375 14.7181 40.8244 16.1158 42.6125 16.1158Z" fill="#212332"/>
</g>
<defs>
<clipPath id="clip0_8_63">
<rect width="56" height="54" fill="white"/>
</clipPath>
</defs>
</svg>
