<svg width="57" height="57" viewBox="0 0 57 57" fill="none" xmlns="http://www.w3.org/2000/svg">
<path d="M53.0157 0H4.15628C1.84724 0 0 1.83871 0 4.1371V52.8629C0 55.0694 1.84724 57 4.15628 57H52.831C55.14 57 56.9873 55.1613 56.9873 52.8629V4.04516C57.172 1.83871 55.3247 0 53.0157 0ZM16.9022 48.45H8.49732V21.329H16.9022V48.45ZM12.6536 17.5597C9.88275 17.5597 7.75839 15.3532 7.75839 12.6871C7.75839 10.021 9.97511 7.81452 12.6536 7.81452C15.3321 7.81452 17.5488 10.021 17.5488 12.6871C17.5488 15.3532 15.5168 17.5597 12.6536 17.5597ZM48.7671 48.45H40.3621V35.3032C40.3621 32.1774 40.2698 28.0403 35.9288 28.0403C31.4954 28.0403 30.8489 31.5339 30.8489 35.0274V48.45H22.4439V21.329H30.6642V25.0984H30.7565C31.9572 22.8919 34.6357 20.6855 38.792 20.6855C47.3816 20.6855 48.9518 26.2016 48.9518 33.7403V48.45H48.7671Z" fill="#212332"/>
</svg>
